<?xml version="1.0" encoding="UTF-8"?><svg xmlns="http://www.w3.org/2000/svg" width="2.8in" height="2.8in" xmlns:xlink="http://www.w3.org/1999/xlink" viewBox="0 0 200 200"><defs><linearGradient id="b" x1="8.4" y1="8.4" x2="192.5" y2="192.5" gradientUnits="userSpaceOnUse"><stop offset="0" stop-color="#a457e7"/><stop offset="1" stop-color="#d7549e"/></linearGradient></defs><g id="a"><path d="M200,40c0-10.2-4-20.4-11.2-27.8C181.4,4.5,170.8,0,160,0c-39.7,0-79.4,0-119,0-2.8,0-5.7.2-8.5.7C14.5,3.8.1,20.7,0,39,0,79.3,0,119.7,0,160c0,11,4.7,21.8,12.7,29.2,7.3,6.9,17.2,10.8,27.2,10.8h120.1c9.3,0,18.5-3.3,25.6-9.3,9-7.4,14.4-19,14.3-30.7,0-40,0-80,0-120Z" style="fill:url(#b);"/></g><g id="c"><path d="M82.4,143.4c2.2-2,5.1-3.1,7.1-5.4,5.9-7,12.6-13.2,17.8-20.6,1.3-2.2,4-2.7,5.9-4.3.9-1.1,1-2.5,1.4-3.8,6.7-1,13.5-.6,20.1-2.2,14.9-3,27.7-13.1,35.5-25.9,3.2-5.8,5.6-11.9,7.3-18.3,1.8-8.1,2.6-16.6,1.2-24.8-1.8-12.9-7.4-24.8-12.9-36.4-1.3,2.5-2.1,5.2-2.8,7.8-1.6,5.5-4.2,10.6-7.9,15-5.2,6.7-13,10.8-21,13.3-7.1,2.2-13.9,5.3-20.4,8.8-14.1,8.5-21.5,24.6-24.1,40.3-4.2,2.1-6.9,6-9.9,9.4-5.8,5.9-10.7,12.7-17.2,17.9-2.8,1.7-1.5,5.6-4,7.5-10.2,10.8-19.8,21.9-29.5,33.1-7,8.1-13.6,16.4-20.5,24.6.4.6.9,1.3,1.3,1.9,16.7-19.8,33.4-39.6,51.1-58.5.9-1.5,4.3-1.8,4.5.2-18.5,19.3-35.9,39.7-53.4,59.9-.2.2-.3.4-.5.6.9,1,1.8,2,2.8,2.9,2.7,2.6,5.8,4.7,9.2,6.4,5.6-3.7,11-7.8,16.4-11.9,14.8-11.8,29.1-24.2,42.5-37.6ZM105.2,117.1c-4.3,5.3-9.1,10-14,14.7,0-.6,0-1.7,0-2.3,5.1-5.3,9.5-11.2,15.2-15.9,0,1.2-.2,2.5-1.2,3.5ZM104.4,89.6c3-9.1,10.5-15.8,18.2-21.1,3.4-1.9,6.5-5,10.7-4.8-1.5,1.2-2.9,2.8-4.8,3.6-7.9,2.2-12.9,9.1-17.6,15.3-1.9,2.5-3.3,5.8-6.4,7ZM116.8,99.6c12.6-3.7,25.2-8.7,35.6-16.8,1-.5,2.1-1,3.2-1.4-2.1,2.7-4.3,5.3-6.6,7.9-1.5,1.1-3,2.2-4.7,3,1.4-.1,2.8-.2,4.1,0-1,.4-2.9,1.3-3.8,1.7-8.2,1.7-15.6,6.6-24.1,6.7-1.3.1-2.6-.5-3.7-1ZM163.3,86c-2,3-4.9,5-7.7,7.2-3.8,2.8-7.6,6-12.4,6.9l.5,1c-3,1-5.9,2.4-9.1,2.7-2.8.7-5.6,2-8.5,1.9-1.2-1.2-2.8-1.8-4.5-2.1,7.6-3.3,16.1-4.2,23.4-8.4,6.2-2.8,12.6-5.4,18.3-9.2ZM149.8,91.5c-1.2,0-1-1.8-.2-2.2,3.2-1.7,6.2-3.7,9.6-5.1-3,2.6-6.3,4.8-9.5,7.3ZM129.1,78.6c7.8-3.2,15.1-7.7,21.7-13,3-2.5,4.9-5.8,7.4-8.7-3.2,8.3-10.6,13.7-16.2,20.1-2.5,2.8-5.6,4.9-8.3,7.5,8.8-1.4,16.8-6.4,22.7-13-2,3.6-5.1,6.5-7.1,10.1-.9,1.5-2,3-3.6,3.9-7.4,4.6-15.9,7.2-24,10.1-3.2.7-6.6,2.3-9.9,1.4,1.8-2.6,4-4.9,5.9-7.4-2.6.9-5.2,2-7.7,3.2.8-1.5,1.5-3,2.3-4.4-.7,0-2.2.2-2.9.3,3.8-8.3,10.4-15,18.1-19.9,2.5-1.3,5.3-2.2,8-2.9-1.8,3.8-5.7,6.1-7.7,9.8,6.6-2.8,12.6-6.8,18.6-10.7-6.3,6-14.3,9.6-21.6,14.1,1.5.6,3,.4,4.4-.3ZM140.8,52.9c-2.1,2.3-4.2,4.8-5.7,7.5h0c-7.5,2.8-15.4,5.7-21.1,11.6-4.5,3.9-6.9,9.8-12.2,12.8.3-2.4.6-4.8.9-7.2,2.7-1,2.7-4.5,4.6-6.4,3.1-3.7,6.8-6.7,10.1-10.2,7.3-4.2,15.6-5.9,23.6-8.2ZM98.9,72.9c1.7-3.6,3.3-7.2,4.9-10.8-.9-.2-1.7-.3-2.6-.5.5-1.3.5-1.4,1.1-2.1,5-6.1,11.1-11.1,18.3-14.4,4-1.9,8.1-3.8,12.4-5-1.7,1.8-3.9,3.1-5.9,4.5-.7.9-1.5,1.8-2.3,2.6.6-.1,1.7-.4,2.3-.5.4,2.1-1.8,2.9-3,4.1,1.6-.6,3.3-1.2,4.9-1.8,1.7-.1,3.3-.2,5-.3-.7,1.7-2.2,2.7-3.8,3.5-4.8,2.2-9.3,4.9-13.2,8.5-3.6,1.8-6.8,4.7-8.9,8.3-2.6,2.5-4.9,5.5-6.1,9-1.6,2.6-2.9,5.5-4.5,8.2-2.3-4.2,1.9-8.2,2.6-12.3-.4-.2-1.1-.7-1.4-.9ZM90.5,89.1c3.8.6,7.5,3.2,8.8,6.9,1.6,1.7,3.5,3.4,3.6,5.9-2.1,1.4-3.3-1.6-5-2.5-3.6-3.6-8.6-4.9-13-7.2,1.8-1.2,3.5-2.6,5.7-3ZM85.1,95c.9.2,2.7.6,3.6.8-.7,1.4-1.9,2.3-3.4,2.7,2,0,3.9,0,5.9-.1,2.8,3.3,6,6.6,7.1,10.9-2.6,6.1-8.4,10.1-12.8,14.9-3.2-3.7-7.1-6.9-11.4-9.3-2-1-4.1-1.8-6.2-2.5,6-5.5,10.5-12.6,17.2-17.3ZM62.4,118.3c.7-1.1,1.4-2.4,2.7-2.8,5,1.1,9.6,3.9,13.1,7.6l.7-.7c.7,2.1,1.8,3.9,3,5.8.2-1,.4-2,.6-3,3.4,2.9,5.2,7.2,6.4,11.4-1.9-3.1-3.4-6.5-5.3-9.7-.9,1.7-.8,3.5,0,5.2-4.6-3.5-8-8.3-13.1-11.1-2.4-1.4-5.2-2-7.9-2.7Z" style="fill:#fff;"/><path d="M47.8,83.6c-3.5-.3-6.8,3.8-4.7,7,1.7,3.2,6,2.8,9.1,2.3,4.6-1.1,9.5-1.3,14-2.7-5.3-3.8-11.7-6.9-18.4-6.7Z" style="fill:#fff;"/><path d="M50.7,52c-4,1.8-4.3,7.6-1.3,10.5,4.9,5.5,11.6,8.7,17.3,13.2,3.1,1.9,5.6,4.9,9.1,5.9-2.4-9.5-7.1-18.5-13.7-25.7-2.8-3-7.3-5.5-11.5-3.9Z" style="fill:#fff;"/><path d="M162.4,123.2c-6.8-1-13.9-1.1-20.6.5,4.3,4,9.2,7.3,14,10.7,3.8,2.2,8.4,5,12.9,3.2,3.3-1.1,5.3-5.2,3.7-8.3-1.8-3.8-6.2-5.4-10.1-6Z" style="fill:#fff;"/><path d="M74.8,30.9c-4.2,1.4-5.5,6.8-4.1,10.6,1.6,6.4,6.5,11.1,8.9,17.1,1.3,3,2.4,6.1,3.8,9.1,2.6-4.2,3-9.2,3.4-14,.5-6.7,0-13.7-3.7-19.5-1.8-2.5-5.1-4.3-8.2-3.2Z" style="fill:#fff;"/></g></svg>