<?xml version="1.0" encoding="UTF-8"?><svg id="a" xmlns="http://www.w3.org/2000/svg" width="1888.5" height="408" viewBox="0 0 1888.5 408"><path d="M592,317.1c-4.1,1.7-8,3.8-12,5.8-24.5,12.1-50.4,21.5-77.4,26.1-19.4,3.3-39,4.4-58.7,4-5.1-.7-10.2-.3-15.3-1.2-20.9-2.4-41.7-7.4-60.8-16.4-12.8-6.4-25.2-14-35.6-23.8-11.4-9.8-20.9-21.8-28.9-34.5-7.3-12.2-13.8-25-18-38.6-4.6-14.5-7.5-29.7-8.6-44.9-1.3-19.5-1.2-39.2,1.2-58.7,2-16.9,5.9-33.5,9.6-50.1,3.2-15.2,7.2-30.6,6.3-46.3-.7-8.3-4.3-16.9-11.5-21.6-8-5-17.8-7-27.1-5.3-9.2,1.3-17.1,7.7-21.5,15.7-6.8,12.1-8.4,26.1-10,39.6-1.4,14.4-2.1,28.8-1.9,43.2,0,9.3-.2,18.6.7,27.8,0,7,1,13.9,1,20.9.9,6.7.9,13.4.8,20.1-4.2-5-7.5-10.7-10.6-16.4-4.8-8.5-9.2-17.3-13-26.3-3.8-8.3-6.6-17.1-10-25.6-6.2-18.6-12.2-37.4-17.3-56.3-3.4-11.7-5.9-23.9-12.3-34.4-5.8-9.9-15.7-17.8-27.2-19.6-4-.4-8.1-.3-12.1,0-7.5,1-14.4,4.7-20.2,9.6-8.4,7.1-13.6,17-18.1,26.8-4.3,9.5-6.9,19.7-9.6,29.8-2.7,10.4-4.8,21-6.6,31.5-.2,1.2-3.7,23.6-4,34.4-1.9,18.6-1.5,37.3-1.3,56,.8,7.7.5,15.5,1.5,23.3-.2,3.3.7,6.6.7,9.9,2.5,24.8,5.5,49.7,12.7,73.6,3.6,10.8,8.9,21.8,18.7,28.3,7.6,5.5,17.5,6.1,26.5,4.9,4.8-1.2,9.6-3.2,13.5-6.3,5.1-4.3,8.6-10.4,10.5-16.8,2.1-6.8,1.7-14,1.4-21-1.1-12.1-3.6-24-5.5-36-1.5-7.9-4.3-22.2-4.4-23.9-.6-8.9-2.5-17.7-2.5-26.6,0-8.8-.6-17.7.6-26.5,1.3.8,2.3,1.8,3.2,3,13.9,17.8,24.5,37.7,35.6,57.3,8.8,14.8,17.2,29.9,26.7,44.3,6.4,9.7,13.1,19.2,20.1,28.5,9.4,12.3,19.9,23.8,31.1,34.5,20.6,19.8,45.2,35,71.1,46.9,15.7,6.8,32.1,12,48.9,15.5,22.6,5.3,46,7.7,69.2,6.8,3.7-.5,7.5-.5,10.9-2.1,1.1-.1,1.6-1.6.7-2.2-2.3-1.4-5.2-1.7-7.8-1.7-5,0-10-.9-15-1-17.5-2.1-35.1-4.4-52.2-8.9-3-.6-6-1.5-8.6-3.2,13.3,2,26.7,3.8,40.2,3.9,20.7.6,41.4-.2,61.8-3.4,12-2.1,23.8-4.9,35.4-8.6,11.4-3.6,22.7-7.6,33.4-13.1,11.1-5.7,22.3-11.3,32.4-18.7,3.3-2.5,6.9-4.7,9.6-7.9.9,0,1.3-.9,2-1.4,4.4-4.4,8.9-8.9,11.7-14.5.9-2.1,2.2-4.3,1.6-6.6-1-2.2-3.9-1.9-5.8-1.4Z" style="fill:#fff;"/><path d="M492.6,395.4c-4.3,0-8.7-.3-12.9.7-3.8,1-8.1,2-10.5,5.4-1.2,2.1,1.4,3.8,3.2,4.1,7.5.8,15.2-.4,22-3.8,1.6-.8,3.1-1.9,3.9-3.5-.8-2.3-3.6-2.9-5.8-2.9Z" style="fill:#fff;"/><path d="M62.2,22.1c0-2.7,0-5.4-.9-8-.7-4.1-3-8.3-6.9-10.1-4.7-1.5-8.7,2.9-9.9,7-.7,3.8-.4,7.9,1.3,11.5,3.3,7.3,8.6,13.6,14.5,19,.7.5,1.3,1,2,1.4.9-6.9-.2-13.9,0-20.8Z" style="fill:#fff;"/><path d="M703.5,62.4c.6-10.7,1.2-22.1-3.6-32.1-3.3-7.6-10.1-13.3-17.9-15.8-4.8-1.7-9.9-1.2-14.9-1.3-8.2-.2-16,3.9-21.6,9.8-7.6,7.5-10.9,18.1-12.6,28.4-1.2,9.3-2.7,18.6-2.6,28-.8,6.7-.4,13.4-1.2,20.1-.3,9.3-1.1,18.7-4.7,27.4-2,4.9-5.7,8.9-10.2,11.5-6.6,3.7-15.4,3.2-21.2-1.9-4.6-4.3-6-10.9-6.5-17-.2-7.2-.1-14.4.5-21.5.6-5.7,1.1-11.3.9-17.1,0-1.5,0-2.8,0-4,.2-17.1.4-34.4-4.2-51-2.7-10.3-10.3-19.1-20.2-23.2-7.6-3.4-16.3-3.1-24.1-.6-8.9,3-16.1,10.1-19.3,18.9-5.3,15-4,31.1-4,46.7-.2,3.5,1,7.5.7,11,0,0,0,0,0,0-.3,9,.3,17.9.2,26.9.6,9.2.6,18.6,0,27.8,0,12.9,0,25.8-.3,38.6-.9,6.9-.2,13.9-1.2,20.8-1,23-4.1,45.8-5.5,68.7-.2,10.5-.8,21.8,4.6,31.2,3.4,6.9,10.4,12,18.1,12.9,8.7,1.2,17.6-2.6,23.7-8.8,7-7.1,11.1-16.7,12.3-26.5,1.4-6.8,1.2-13.8,2.1-20.7.7-11,2.5-21.9,5.8-32.5,1.7-5.2,3.8-10.5,7.3-14.8,4.4-5.9,11.6-10,19-9.9,4.7-.2,9.7,1.7,12.5,5.6,4.1,5.2,4.2,12.4,3.5,18.7-.2,15.9-3.9,31.4-5.1,47.2-1.9,18.3-2.5,37.1,2.5,55,3.2,12.6,9.4,24.8,19.5,33.2,4.8,3.9,10.3,7.4,16.4,8.6,4.9.4,10.4,1.1,14.8-1.9,3.1-1.8,5.2-5,6.2-8.4,1.2-5.2-.6-10.4-2-15.4-6.3-21.3-9.6-43.7-7-65.8,1.7-20.7,6.1-41.1,10.4-61.4.8-5,2.6-9.9,2.9-15,.4-.5.6-1,.7-1.6,3.5-17.8,8.9-35.2,12.4-53.1,5.8-25,10.8-50.2,12.7-75.9ZM586.9,88.6c0,1.6,0,3.1,0,4.7,0-1.6,0-3.1,0-4.7-.6.3-1.1.6-1.7.9.6-.3,1.1-.6,1.7-.9Z" style="fill:#fff;"/><path d="M934.9,63.8c-.5-5.8-5-10.6-10.1-12.8-4.9-2.2-10.4-1.7-15.6-1.4h0c-7.6,1.3-14.5,5.4-20.4,10.2-6.8,5.4-11.9,12.5-16.4,19.8-2.9,5-5.9,10.1-7.4,15.7,0,0,0,0,0,0,4.6-1.9,9.4-3.5,14.2-4.8,9.2-2.6,18.8-2.5,28.3-3.8,6.9-.6,14.1-2.1,19.8-6.3,5.3-3.6,8.4-10.3,7.7-16.7Z" style="fill:#fff;"/><path d="M922,226.9c-4.8-5.4-10.5-10-16.6-13.9,0,6.8.8,13.7,2.7,20.2,2,5.3,4.4,11.5,10.2,13.7,5.1,2,11.1-3.1,10.3-8.5-1-4.4-3.6-8.2-6.5-11.5Z" style="fill:#fff;"/><path d="M870.6,23c.5-3.7-1.1-8.1-4.9-9.5-2.3-.2-4.7-.2-7,0-1.4.2-2.4,1.2-3.5,2-1.5.4-2.4,1.9-3.3,3-3.1,4.6-5,9.8-6.6,15-1.4,4.4-2.7,8.8-2.8,13.4v-.2c0,1.9-.6,4.4-.6,6.3,7.5-5.5,15.4-10.5,21.9-17.2,3.4-3.5,5.9-8,6.7-12.9Z" style="fill:#fff;"/><path d="M41.9,45c-4.7-5.4-10.4-10.3-17.3-12.6-4.2-1.3-9-2.2-13.3-.4-5.2,1.2-9,5.7-10.9,10.5-.5,2.9-.5,5.8,0,8.7,1.6,6,6.3,10.9,11.8,13.5,6.6,3.1,13.7,4.7,20.8,6.4,8.8,2,17.6,4,26.2,6.4-.3-1.8-.7-3.6-1.2-5.4-3.4-10-9.2-19.1-16.2-27Z" style="fill:#fff;"/><path d="M428.6,69.4c4.6-4.4,9.7-8.3,14.2-12.8,3.5-3.6,7.5-7.1,9-12.1.3-1.1.3-2.1.1-3.1-.7-3.8-4.2-6.5-8-6.4,0,0,0,0,0,0-3,0-5.9,1-8.3,2.9-1.5,1.2-2.9,2.7-4,4.3-7.3,9.4-9.5,21.8-8.8,33.4,2.1-1.9,3.9-4.1,5.9-6.1Z" style="fill:#fff;"/><path d="M49.3,94.9c-6.4-3.3-13.7-4.8-20.8-4.3-5.3.6-10.9,3-13.4,8-.4,2.1-.7,4.7.8,6.4,2.1,2.5,5.6,3.6,8.7,3.1,10-1.7,19.1-6.3,28.3-10.4-1-1.2-2.2-2.2-3.7-2.9Z" style="fill:#fff;"/><path d="M406.7,65.6c.5,1.2.7,2.6,1.8,3.4,1.5-1.7,2.3-3.9,3.1-6,1.8-4.7,3.7-9.5,3.5-14.7.1-4-.8-8.4-4.2-10.9-1.6-1.4-4.2-1.5-6-.3-3.2,2.1-4.2,6.2-3.7,9.8.8,6.5,3.3,12.6,5.4,18.7Z" style="fill:#fff;"/><path d="M398.3,72.4c-.1-3.6-1.2-7.1-2.5-10.4-1-2.4-2.5-4.7-4.7-6.2-1.9-.5-4.3-.5-5.2,1.6-.8,2.7,1.1,5.1,2.8,6.9,2.9,3,6.1,5.7,9.6,8.1Z" style="fill:#fff;"/><path d="M293.6,195.9c-.1,11.4,2.4,22.7,5.5,33.6,5.6,16.5,14.5,32,26.6,44.5,17.1,17.9,41.1,29.1,65.8,30.8,21.8,1.9,44.2-4.1,62.1-16.7,14.6-10,27.1-23.3,35-39.2,6.4-12.6,10.4-26.3,12.6-40.2,3.6-23.8-1.3-48.8-13.6-69.5-6.8-11.3-15.5-21.5-25.5-30.1-12.5-10.2-27.3-18-43.3-21.1-12.1-2.7-24.7-3-37-1.5-5.5.6-10.9,1.9-16.1,3.4-14.4,4.9-28,12.6-38.6,23.6-21.8,21.2-34,51.9-33.3,82.3ZM365.9,165.7c5.6-7.7,14.2-12.9,23.5-14.8,8.9-1.3,18.5.2,25.9,5.5,9,6.4,15.7,16.2,17.9,27.1.8,7.5,1,15.3-1.6,22.5-3.2,9.2-9.3,17.4-17.5,22.8-4,2.6-8.7,4.1-13.5,4.1-4.8,0-9.7.4-14.3-1.1-12.2-3.6-21.8-13.7-26-25.5-4.9-13.4-2.5-28.9,5.6-40.5Z" style="fill:#fff;"/><path d="M914.2,126.4c3.5-1.2,6.3-4.1,7.3-7.7.5-2.5-.8-4.9-2.2-6.9-3.4-3.5-7.8-6.2-12.7-6.6-4.5-.3-9.1-.3-13.5,1.1-8.2,2.5-15.9,6.7-22.6,12-.2.2-.7.7-1,.9,7.9,1.8,15.9,3.4,23.6,6,6.8,1.8,14.2,4,21.1,1.3Z" style="fill:#fff;"/><path d="M30.7,127.1c-2,2.1-2.5,5.1-1.8,7.8,1.6,3.3,6.1,3.5,8.8,1.5,6.2-4.1,8.9-11.4,14.1-16.6-7.5-.2-15.9,1.3-21.1,7.3Z" style="fill:#fff;"/><path d="M926.3,183.2c-4.8-2.8-10.7-3.5-16.1-2.3-5.5.8-10.2,4-15.1,6.5,4.6,5.1,10.6,8.9,17,11.6,3.5,1.6,7.5,1.7,11.3,1.2,3.7-.7,7.3-3.5,8.1-7.3.7-4-1.9-7.8-5.2-9.7Z" style="fill:#fff;"/><path d="M720,201.7c-1,2.7,2,5.7,4.6,3.8,1.5-2.4,2.1-5.2,3-7.8,1.1-3.6,3.2-6.7,4.5-10.2-1.2.3-2.5.3-3.3,1.3-3.7,3.7-6.9,8-8.7,12.9Z" style="fill:#fff;"/><path d="M474.8,286.2c-.2,1.6-.2,3.3.4,4.9.8,4.1,2.5,8,3.5,12.1,1.6,6.5,3.3,13.1,6.8,18.9,2.9,4.8,8.7,7.5,14.2,6.9,5.2-.6,9.9-4.7,11.1-9.8.4-2.8.4-5.8-1-8.3-4.8-9.3-13.9-15.5-22.9-20.4-3.8-1.9-7.6-4.5-12-4.4Z" style="fill:#fff;"/><path d="M464.4,291.3c-.9-.8-2.2-.5-3.3-.4-1.4,4.7-2.5,9.5-3.5,14.3-.4,4.6-.9,9.9,2.2,13.8,2.8,4.1,9.8,3.3,12-.9,3.1-5.4,2-12-.7-17.3-1.8-3.4-3.6-7.1-6.8-9.5Z" style="fill:#fff;"/><path d="M712,296.8c-9.2-.2-18.4-.8-27.5-2.4,2.6,6.4,8,11.2,13.2,15.5,5.2,4,11.4,7.6,18.1,7.1,4.7.2,9.4-2.7,10.9-7.2.7-2.8.7-6.1-1.4-8.3-3.4-3.5-8.6-4.4-13.4-4.6Z" style="fill:#fff;"/><path d="M691.3,319.4c-3.7-3.3-7.3-6.8-11.9-8.8-.4,4.3.6,8.5.6,12.8.5,6,.9,12.1,2.7,17.9,1.1,3.5,3.4,6.8,6.8,8.4,3.7,1.4,8.2.5,10.6-2.7,2.9-2.8,2.7-7.1,1.9-10.7-1.7-6.6-5.7-12.4-10.7-16.9Z" style="fill:#fff;"/><path d="M126.3,339.3c-1.2,2-2,4.7-1,7,1,2.6,4.6,3.9,7,2.4,2.8-1.4,3.4-4.7,3.7-7.5.2-3.6.3-7.3-.9-10.7-3.4,2.4-6.4,5.4-8.9,8.8Z" style="fill:#fff;"/><path d="M1034.2,179.1c-50.9-13.1-71.2-27.7-71.2-61.8s28.1-54.7,68.9-54.7,67.4,22.1,74.2,56.9h7.5c-4.1-29.2-23.6-63.7-81.3-63.7s-77.2,23.6-77.2,62.2,25.1,54.3,78.3,68.5c61,16.5,77.2,34.1,77.2,71.2s-30,62.5-77.2,62.5-75.7-22.8-83.5-65.5h-7.9c7.5,43.4,36.7,72.3,91,72.3s85.4-27,85.4-70-14.2-59.9-84.3-77.9Z" style="fill:#fff;"/><path d="M1180.3,75.4h-7.5v61.8h-34.8v6.7h34.8v139c0,33.3,9.7,44.2,34.5,44.2s10.5-.4,15.4-2.2v-6.7c-3.4,1.5-10.1,1.9-15,1.9-23.2,0-27.3-15-27.3-35.2v-140.8h46.4v-6.7h-46.4v-61.8Z" style="fill:#fff;"/><path d="M1397.1,137.2h-7.9v102.2c0,54.3-27.7,80.5-66.3,80.5s-57.3-29.2-57.3-59.9v-122.8h-7.5v119.9c0,58.1,38.2,70,64.4,70,37.1,0,58.1-21.7,66.7-49.8-.4,18.4.4,43.4.7,46.1h7.5c0-8.2-.4-32.6-.4-50.9v-135.2Z" style="fill:#fff;"/><path d="M1602.4,42h-7.5v134.8c-4.5-12.4-19.5-44.2-65.5-44.2s-81.6,32.2-81.6,99.6,36.3,95.5,76.8,95.5,61.8-24,70.4-51.3c0,19.9.4,40.5.7,46.8h7.1c0-10.9-.4-31.5-.4-44.6V42ZM1524.8,320.7c-39.7,0-69.3-33-69.3-89.1s27.7-91.8,73-91.8,67,31.5,67,86.5-24.7,94.4-70.8,94.4Z" style="fill:#fff;"/><rect x="1667.5" y="137.2" width="7.5" height="186.1" style="fill:#fff;"/><path d="M1808,131.9c-46.1,0-82.4,34.5-82.4,98.9s31.5,97.8,80.5,97.8,82.4-36,82.4-98.5-34.8-98.1-80.5-98.1ZM1806.1,321.8c-47.9,0-72.7-41.9-72.7-91.4s25.5-91.8,73.8-91.8,73.4,41.6,73.4,91.8-26.2,91.4-74.5,91.4Z" style="fill:#fff;"/><path d="M1689.1,42h-6.2c-3.8,1.3-7,4-9.3,7.2-7.3,9.4-9.5,21.8-8.8,33.4,2.1-1.9,3.9-4.1,5.9-6.1,4.6-4.4,9.7-8.3,14.2-12.8,3.5-3.6,7.5-7.1,9-12.1,1-3.9-1.3-7.9-4.8-9.6Z" style="fill:#fff;"/><path d="M722.2,124.5c-.9-.6-1.8-1.2-2.8-1.7" style="fill:#fff;"/><path d="M713.7,132.2c.4-.7.9-1.3,1.3-2" style="fill:#fff;"/><path d="M879.8,198.5c-1.3-6.2-2-12.5-3.9-18.5,0,0-1.1-6.3-1.5-9.2-.2-1.5-.6-3-1-4.4-.4-1.2-.7-2.2-1-3.1-5.4-21.7-12.9-42.9-21.8-63.5-7.8-16.4-16.8-32.8-30.1-45.5-6.6-6-14.4-11.1-23.3-12.8-11.2-2-22.6,2.2-31.4,9-5.8,4.7-10.9,10.3-15.6,16-13.9,17.1-24,36.9-33.1,56.9,0,0,0,0,0,.1,0,0,0,0,0,0h0c-.3.7-.6,1.3-.8,1.8l-1.7,3.7h0s0,0,0,0c-1.5,2.9-2.9,5.8-4,8.9-3.3,8.7-6.4,17.3-9.3,26.2-7,20.3-13.1,41.1-16.1,62.4-2.2,12.3-2.9,24.9-2.2,37.4.6,7.2,3.5,14.5,8.9,19.4,5.6,5.1,13.4,7.2,20.9,6.8,8.3.5,16.8-2.9,22.1-9.5,4-4.6,5.4-10.7,6.1-16.7.9-8.3,3.4-16.8,8.7-23.4,7.6-9.5,19.2-15.5,31.1-17.1,7-.3,14.7-1.2,20.9,2.7,5.9,3.6,8.7,10.4,10.5,16.8,3.4,11.3,3,23.3,3,35,.2,6.6-.5,13.3.8,19.8,1.2,7.2,4.9,13.9,10.3,18.8,9.1,9,24.4,10.9,35.4,4.3,7.1-4.4,12.6-11.1,16.1-18.6,6.4-13.8,7.9-29.3,7.9-44.4.3-19.9-2.4-39.7-5.8-59.3ZM803.5,170c-2.6,3.8-7.1,5.8-11.3,7.4-8,3.2-16.8,4.2-25.3,3.1-3.4-.4-6.1-3.5-5.1-7,3.8-17,10.3-33.4,19.2-48.3,1.5-2.3,2.9-4.9,5.3-6.5,2-1.3,4.5,0,5.9,1.6,2.3,2.5,3.7,5.7,5,8.8,3.8,9.5,6.2,19.6,7.3,29.8.5,3.7,1,7.8-1.1,11.1Z" style="fill:#fff;"/></svg>